<mxfile host="app.diagrams.net" modified="2023-09-11T13:06:16.417Z" agent="Mozilla/5.0 (Windows NT 10.0; Win64; x64) AppleWebKit/537.36 (KHTML, like Gecko) Chrome/116.0.0.0 Safari/537.36" etag="pF7ufIZ8G1Gp45HMZrCi" version="21.7.4" type="device">
  <diagram name="Pagina-1" id="2p5oe2ja_bhTFUXtAS0E">
    <mxGraphModel dx="1290" dy="534" grid="1" gridSize="10" guides="1" tooltips="1" connect="1" arrows="1" fold="1" page="1" pageScale="1" pageWidth="827" pageHeight="1169" math="0" shadow="0">
      <root>
        <mxCell id="0" />
        <mxCell id="1" parent="0" />
        <mxCell id="bLRLNcrI5jlkh-ToIanB-2" value="Retrieve articles&lt;br&gt;from different sources" style="ellipse;whiteSpace=wrap;html=1;" vertex="1" parent="1">
          <mxGeometry x="140" y="250" width="140" height="70" as="geometry" />
        </mxCell>
        <mxCell id="bLRLNcrI5jlkh-ToIanB-3" value="Extract tokens from saved_articles.csv" style="ellipse;whiteSpace=wrap;html=1;" vertex="1" parent="1">
          <mxGeometry x="344" y="250" width="140" height="70" as="geometry" />
        </mxCell>
        <mxCell id="bLRLNcrI5jlkh-ToIanB-4" value="Retrieve articles and extract tokens" style="ellipse;whiteSpace=wrap;html=1;" vertex="1" parent="1">
          <mxGeometry x="550" y="250" width="140" height="70" as="geometry" />
        </mxCell>
        <mxCell id="bLRLNcrI5jlkh-ToIanB-5" value="Save articles" style="ellipse;whiteSpace=wrap;html=1;" vertex="1" parent="1">
          <mxGeometry x="140" y="390" width="140" height="70" as="geometry" />
        </mxCell>
        <mxCell id="bLRLNcrI5jlkh-ToIanB-6" value="Save results" style="ellipse;whiteSpace=wrap;html=1;" vertex="1" parent="1">
          <mxGeometry x="344" y="390" width="140" height="70" as="geometry" />
        </mxCell>
        <mxCell id="bLRLNcrI5jlkh-ToIanB-8" value="saved_articles.csv" style="ellipse;whiteSpace=wrap;html=1;" vertex="1" parent="1">
          <mxGeometry x="140" y="535" width="140" height="70" as="geometry" />
        </mxCell>
        <mxCell id="bLRLNcrI5jlkh-ToIanB-10" value="" style="endArrow=open;endFill=1;endSize=12;html=1;rounded=0;" edge="1" parent="1" source="bLRLNcrI5jlkh-ToIanB-1" target="bLRLNcrI5jlkh-ToIanB-2">
          <mxGeometry width="160" relative="1" as="geometry">
            <mxPoint x="330" y="220" as="sourcePoint" />
            <mxPoint x="490" y="220" as="targetPoint" />
            <Array as="points">
              <mxPoint x="340" y="40" />
              <mxPoint x="340" y="240" />
            </Array>
          </mxGeometry>
        </mxCell>
        <mxCell id="bLRLNcrI5jlkh-ToIanB-12" value="" style="endArrow=open;endFill=1;endSize=12;html=1;rounded=0;" edge="1" parent="1" source="bLRLNcrI5jlkh-ToIanB-5" target="bLRLNcrI5jlkh-ToIanB-8">
          <mxGeometry width="160" relative="1" as="geometry">
            <mxPoint x="520" y="199.5" as="sourcePoint" />
            <mxPoint x="580" y="199.5" as="targetPoint" />
          </mxGeometry>
        </mxCell>
        <mxCell id="bLRLNcrI5jlkh-ToIanB-15" value="" style="endArrow=open;endFill=1;endSize=12;html=1;rounded=0;" edge="1" parent="1" source="bLRLNcrI5jlkh-ToIanB-1" target="bLRLNcrI5jlkh-ToIanB-3">
          <mxGeometry width="160" relative="1" as="geometry">
            <mxPoint x="120" y="240" as="sourcePoint" />
            <mxPoint x="180" y="240" as="targetPoint" />
          </mxGeometry>
        </mxCell>
        <mxCell id="bLRLNcrI5jlkh-ToIanB-17" value="" style="endArrow=open;endFill=1;endSize=12;html=1;rounded=0;" edge="1" parent="1" source="bLRLNcrI5jlkh-ToIanB-2" target="bLRLNcrI5jlkh-ToIanB-5">
          <mxGeometry width="160" relative="1" as="geometry">
            <mxPoint x="320" y="205" as="sourcePoint" />
            <mxPoint x="420" y="205" as="targetPoint" />
          </mxGeometry>
        </mxCell>
        <mxCell id="bLRLNcrI5jlkh-ToIanB-18" value="load the stop_words_file" style="ellipse;whiteSpace=wrap;html=1;" vertex="1" parent="1">
          <mxGeometry x="480" y="320" width="100" height="55" as="geometry" />
        </mxCell>
        <mxCell id="bLRLNcrI5jlkh-ToIanB-19" value="" style="endArrow=open;endFill=1;endSize=12;html=1;rounded=0;" edge="1" parent="1" source="bLRLNcrI5jlkh-ToIanB-3" target="bLRLNcrI5jlkh-ToIanB-6">
          <mxGeometry width="160" relative="1" as="geometry">
            <mxPoint x="330" y="435" as="sourcePoint" />
            <mxPoint x="414" y="390" as="targetPoint" />
          </mxGeometry>
        </mxCell>
        <mxCell id="bLRLNcrI5jlkh-ToIanB-21" value="" style="endArrow=open;endFill=1;endSize=12;html=1;rounded=0;" edge="1" parent="1" source="bLRLNcrI5jlkh-ToIanB-6" target="bLRLNcrI5jlkh-ToIanB-22">
          <mxGeometry width="160" relative="1" as="geometry">
            <mxPoint x="330" y="635" as="sourcePoint" />
            <mxPoint x="490" y="635" as="targetPoint" />
          </mxGeometry>
        </mxCell>
        <mxCell id="bLRLNcrI5jlkh-ToIanB-22" value="results_file_name.txt" style="ellipse;whiteSpace=wrap;html=1;" vertex="1" parent="1">
          <mxGeometry x="344" y="535" width="140" height="70" as="geometry" />
        </mxCell>
        <mxCell id="bLRLNcrI5jlkh-ToIanB-28" value="" style="endArrow=open;endFill=1;endSize=12;html=1;rounded=0;" edge="1" parent="1" source="bLRLNcrI5jlkh-ToIanB-1" target="bLRLNcrI5jlkh-ToIanB-4">
          <mxGeometry width="160" relative="1" as="geometry">
            <mxPoint x="330" y="260" as="sourcePoint" />
            <mxPoint x="490" y="260" as="targetPoint" />
          </mxGeometry>
        </mxCell>
        <mxCell id="bLRLNcrI5jlkh-ToIanB-29" value="" style="endArrow=open;endFill=1;endSize=12;html=1;rounded=0;strokeColor=#FF0000;" edge="1" parent="1" source="bLRLNcrI5jlkh-ToIanB-4" target="bLRLNcrI5jlkh-ToIanB-2">
          <mxGeometry width="160" relative="1" as="geometry">
            <mxPoint x="330" y="645" as="sourcePoint" />
            <mxPoint x="490" y="645" as="targetPoint" />
            <Array as="points">
              <mxPoint x="620" y="645" />
              <mxPoint x="80" y="645" />
              <mxPoint x="80" y="545" />
              <mxPoint x="80" y="285" />
            </Array>
          </mxGeometry>
        </mxCell>
        <mxCell id="bLRLNcrI5jlkh-ToIanB-30" value="" style="endArrow=open;endFill=1;endSize=12;html=1;rounded=0;strokeColor=#FF0000;" edge="1" parent="1" source="bLRLNcrI5jlkh-ToIanB-2" target="bLRLNcrI5jlkh-ToIanB-3">
          <mxGeometry width="160" relative="1" as="geometry">
            <mxPoint x="330" y="445" as="sourcePoint" />
            <mxPoint x="490" y="445" as="targetPoint" />
          </mxGeometry>
        </mxCell>
        <mxCell id="bLRLNcrI5jlkh-ToIanB-34" value="" style="endArrow=open;endFill=1;endSize=12;html=1;rounded=0;" edge="1" parent="1" source="bLRLNcrI5jlkh-ToIanB-18">
          <mxGeometry width="160" relative="1" as="geometry">
            <mxPoint x="330" y="445" as="sourcePoint" />
            <mxPoint x="410" y="348" as="targetPoint" />
          </mxGeometry>
        </mxCell>
        <mxCell id="bLRLNcrI5jlkh-ToIanB-1" value="User" style="shape=umlActor;verticalLabelPosition=bottom;verticalAlign=top;outlineConnect=0;html=1;labelBackgroundColor=default;" vertex="1" parent="1">
          <mxGeometry x="399" y="10" width="30" height="60" as="geometry" />
        </mxCell>
        <mxCell id="bLRLNcrI5jlkh-ToIanB-35" value="CSV files" style="ellipse;whiteSpace=wrap;html=1;" vertex="1" parent="1">
          <mxGeometry x="100" y="165" width="90" height="40" as="geometry" />
        </mxCell>
        <mxCell id="bLRLNcrI5jlkh-ToIanB-36" value="The Guardian API" style="ellipse;whiteSpace=wrap;html=1;" vertex="1" parent="1">
          <mxGeometry x="210" y="160" width="110" height="50" as="geometry" />
        </mxCell>
        <mxCell id="bLRLNcrI5jlkh-ToIanB-37" value="" style="endArrow=open;endFill=1;endSize=12;html=1;rounded=0;" edge="1" parent="1" source="bLRLNcrI5jlkh-ToIanB-35" target="bLRLNcrI5jlkh-ToIanB-2">
          <mxGeometry width="160" relative="1" as="geometry">
            <mxPoint x="450" y="230" as="sourcePoint" />
            <mxPoint x="610" y="230" as="targetPoint" />
          </mxGeometry>
        </mxCell>
        <mxCell id="bLRLNcrI5jlkh-ToIanB-38" value="" style="endArrow=open;endFill=1;endSize=12;html=1;rounded=0;" edge="1" parent="1" source="bLRLNcrI5jlkh-ToIanB-36" target="bLRLNcrI5jlkh-ToIanB-2">
          <mxGeometry width="160" relative="1" as="geometry">
            <mxPoint x="168" y="214" as="sourcePoint" />
            <mxPoint x="198" y="262" as="targetPoint" />
          </mxGeometry>
        </mxCell>
        <mxCell id="bLRLNcrI5jlkh-ToIanB-39" value="" style="endArrow=open;endFill=1;endSize=12;html=1;rounded=0;" edge="1" parent="1" source="bLRLNcrI5jlkh-ToIanB-8" target="bLRLNcrI5jlkh-ToIanB-3">
          <mxGeometry width="160" relative="1" as="geometry">
            <mxPoint x="450" y="410" as="sourcePoint" />
            <mxPoint x="610" y="410" as="targetPoint" />
          </mxGeometry>
        </mxCell>
      </root>
    </mxGraphModel>
  </diagram>
</mxfile>
